<?xml version="1.0" encoding="utf-8"?>
<!-- Generator: Adobe Illustrator 26.4.1, SVG Export Plug-In . SVG Version: 6.00 Build 0)  -->
<svg version="1.1" id="Capa_1" xmlns="http://www.w3.org/2000/svg" xmlns:xlink="http://www.w3.org/1999/xlink" x="0px" y="0px"
	 viewBox="0 0 558.7 558.7" style="enable-background:new 0 0 558.7 558.7;" xml:space="preserve">
<style type="text/css">
	.st0{fill:#BF1D5F;}
	.st1{opacity:0.2;}
	.st2{fill:#F33D6D;}
	.st3{fill:#A30A36;}
	.st4{opacity:0.3;fill:#FFFFFF;}
	.st5{opacity:0.1;}
	.st6{opacity:0.1;fill:#FFFFFF;}
	.st7{opacity:0.15;}
</style>
<g>
	<path class="st0" d="M154.6,266.1c0,0-65.9-12.5-68.7-108.7c-0.2-6.5,1.8-13,5.5-18.4c7.5-10.9,20-31,20.8-44.2
		c-6.5-24.7-27.7,5.5-36.3,31.4c-0.1-99.1-50.2-90.3-22.9,8.6c0,0-15-32.9-31.5-40.3c-8.8-4-18.1,4.4-15.5,13.7
		c2.7,9.7,13.1,25.1,46.1,43.9c4,2.3,6.6,6.3,7.1,10.9c2.2,24.2,15.7,101.8,96,122.6L154.6,266.1z"/>
	<path class="st0" d="M410.3,266.1c0,0,65.9-12.5,68.7-108.7c0.2-6.5-1.8-13-5.5-18.4c-7.5-10.9-20-31-20.8-44.2
		c6.5-24.7,27.7,5.5,36.3,31.4c0.1-99.1,50.2-90.3,22.9,8.6c0,0,15-32.9,31.5-40.3c8.8-4,18.1,4.4,15.5,13.7
		c-2.7,9.7-13.1,25.1-46.1,43.9c-4,2.3-6.6,6.3-7.1,10.9c-2.2,24.2-15.7,101.8-96,122.6L410.3,266.1z"/>
	<path class="st1" d="M410.3,266.1c0,0,65.9-12.5,68.7-108.7c0.2-6.5-1.8-13-5.5-18.4c-7.5-10.9-20-31-20.8-44.2
		c6.5-24.7,27.7,5.5,36.3,31.4c0.1-99.1,50.2-90.3,22.9,8.6c0,0,15-32.9,31.5-40.3c8.8-4,18.1,4.4,15.5,13.7
		c-2.7,9.7-13.1,25.1-46.1,43.9c-4,2.3-6.6,6.3-7.1,10.9c-2.2,24.2-15.7,101.8-96,122.6L410.3,266.1z"/>
	<path class="st2" d="M516,513.2c-1.5,20.2-23.4,27.7-40,16.8c-11.7-7.1-25.8-11.7-41.3,2.7c-18.1,14.8-35.3,18.3-65.1,2.2
		c0,0-19.1-12.4-28.6-12.4c-27.7-0.7-32.2,33-59.9,32.5c-15.2-0.7-24.4-13.3-28.6-18.3c-24.2-25.2-43.3-9.9-57.3-1.8
		c-32.6,17.6-49.5,10.5-65.1-2.2c-28.2-22.7-37.3,1.6-56.6,2.3c-42-2.6-21.1-51.2-2.2-68.3c56.3-47.1,79.8-190.4,76.2-228.4
		C131.5,137.1,179.4,59.9,260.1,50.2c22.8-2,176.3-19.1,157.4,187.8c0,0,0,70.1,22.1,137.6c11.1,34,29.9,64.9,54.1,91.2
		C503.6,477.7,517.1,495.8,516,513.2z"/>
	<path class="st0" d="M172.2,332.5c-0.3-1.5-2.5-1.2-2.4,0.3c8.9,43.5-42,85.8-22.3,126.8c18.4,21.6,67.8,4,59.3-53.8
		c-0.4-4-5.7-5.3-7.9-1.9c-1.3,2-2.4,4.6-2.7,7.8c-1.3,11-3.9,21.3-13.2,30.3c-10.5,9.3-27.3,3.9-29.9-9.9
		C147.9,400.1,178.6,386.6,172.2,332.5z"/>
	<path class="st0" d="M392.6,332.5c0.3-1.5,2.5-1.2,2.4,0.3c-8.9,43.5,42,85.8,22.3,126.8c-18.4,21.6-67.8,4-59.3-53.8
		c0.4-4,5.7-5.3,7.9-1.9c1.3,2,2.4,4.6,2.7,7.8c1.3,11,3.9,21.3,13.2,30.3c10.5,9.3,27.3,3.9,29.9-9.9
		C416.9,400.1,386.2,386.6,392.6,332.5z"/>
	<path class="st0" d="M286.8,380.8c22.1-3.7,16-46,14.3-62.4c-11.6-12.1,2.9,46.2-18.6,48.4c-20.1-4.8-11.3-42.3-14.4-48.4
		c-6.7-7.6-5.6,12.2-6.3,15.6C260.7,352.2,260.2,385.8,286.8,380.8z"/>
	<path class="st0" d="M280.5,463.3c10.5-1,11.9-28.2,11.9-28.2c7.1,53.3-32.3,53.1-25.2,0C267.2,435.1,268.8,464.6,280.5,463.3z"/>
	<path class="st3" d="M234.8,228c0,25.5,84.4,25.8,87.7,1.7C275,253,234.8,228,234.8,228z"/>
	<path class="st4" d="M161,185.7c-3.6,30.1,4.1,55.3-2.9,54.5c-7.1-0.8-9.9-25.9-6.3-56c3.6-30.1,12.2-53.8,19.3-53
		S164.5,155.6,161,185.7z"/>
	<path class="st4" d="M161.1,254.1c0.1,10.6-8.7,10.6-8.6,0C152.3,243.6,161.2,243.6,161.1,254.1z"/>
	<path class="st5" d="M516,513.2c-0.8,12.9-11.7,22.9-24.6,21.8c-8.2-0.1-15.5-6-24.5-9.7c3.9-18.2-10.1-38.4-20.2-50.3
		C302.8,315.8,477.4,85,260,50.2c22.5-1.8,176.4-19.5,157.4,187.8c0,0,0,70.1,22.1,137.6c11.1,34,29.9,64.9,54.1,91.2
		C503.6,477.7,517.1,495.8,516,513.2z"/>
	<path class="st0" d="M391,118c-9,12.1-24.3-3.1-31.3-14.1c-3.1-6.1-8.3-17.6-4-25.6c7.3-10.6,34.4-51.4,36.9-76.2
		C404.7,26.5,414.9,83.7,391,118z"/>
	<path class="st6" d="M420.6,541.8c-11.1,4.2-29,6.7-51-6.8c0,0-19.1-12.4-28.6-12.4c-27.4-0.4-30.6,30-57.3,32.5
		c-27.2,0.8-32.6-33.2-60-32.5c-9.5,0-28.6,12.4-28.6,12.4c-32.6,17.6-49.5,10.5-65.1-2.2c-18.6-17.4-35.4-6.1-41.3-2.7
		c-17,11.4-40,2.4-40-18.6c0.1-16.7,12.9-33.8,22.5-44.2c24.2-26.3,42.9-57.3,54.1-91.2c20.7-63.6,21.9-125.7,22.1-137.6
		c-13.6-77.3,19.2-153.9,67.8-173.3c215.3,36.5,42,276.1,185.3,439.2C408.1,513.5,417.8,527.4,420.6,541.8z"/>
	<path class="st7" d="M391,118c-9,12.1-24.3-3.1-31.3-14.1c28.3-4.9,47.2-41.6,43.5-67.5C407.5,59.4,408.1,90.4,391,118z"/>
	<path class="st0" d="M210.8,84.5c-1.6,21.9-18.9,40.2-32.5,37.4c-39.8-42.4-5.7-123-6.1-119.8C174.9,32.1,205.8,67.4,210.8,84.5z"
		/>
	<path class="st7" d="M210.8,84.5c-1.6,21.9-18.9,40.2-32.5,37.4c38.2-41.1-9-66.1-6.1-119.8C174.9,32.1,205.8,67.4,210.8,84.5z"/>
</g>
</svg>
