<?xml version="1.0" encoding="utf-8"?>
<!-- Generator: Adobe Illustrator 26.4.1, SVG Export Plug-In . SVG Version: 6.00 Build 0)  -->
<svg version="1.1" id="Capa_1" xmlns="http://www.w3.org/2000/svg" xmlns:xlink="http://www.w3.org/1999/xlink" x="0px" y="0px"
	 viewBox="0 0 558.7 558.7" style="enable-background:new 0 0 558.7 558.7;" xml:space="preserve">
<style type="text/css">
	.st0{fill:#F49F5C;}
	.st1{fill:#FFCA62;}
	.st2{opacity:7.000000e-02;fill:#FFFFFF;}
	.st3{opacity:0.1;}
	.st4{opacity:0.2;fill:#FFFFFF;}
	.st5{fill:#D87736;}
	.st6{fill:#A30A36;}
	.st7{fill:#D10252;}
	.st8{fill:#FFFFFF;}
	.st9{opacity:0.3;fill:#FFFFFF;}
</style>
<g>
	<path class="st0" d="M163.2,272.4c-1.9-1.8-124.8,87-83.8,144.4c5.4,10.6,19.8,15.2,22.9,1.7c2.1-7.8-9.7-16.1-8.6-25
		c1.7-9.5,12-10.3,17.5,0.2c10.2,19.5,23.3-0.5,6.4-21.9c0,0-8.2-9.1,7.3-26.4l56.5-67.5L163.2,272.4z"/>
	<path class="st0" d="M400.8,266c1.9-1.8,124.8,87,83.8,144.4c-5.4,10.6-19.8,15.2-22.9,1.7c-2.1-7.8,9.7-16.1,8.6-25
		c-1.7-9.5-12-10.3-17.5,0.2c-10.2,19.5-23.3-0.5-6.4-21.9c0,0,8.2-9.1-7.3-26.4l-56.5-67.5L400.8,266z"/>
	<path class="st1" d="M455.6,532.2c-6,6.7-14.5,8-24,3.4c-10.8-6-10.1-16.4-18.8-30.7c-4.4-6.5-14.3-4.2-15.3,3.6
		c-1.1,10.8,7.2,29.9-8.8,38.5c0,0-22.8,10.9-25.5-22.8c-0.7-15.3-27.3-34.4-38.3,10c0,0-4.6,18.2-19.2,18.2
		c-32.3-1.2,7.4-41.1-21.9-44.7c-31.1,1.9,9.5,43.8-23,44.7c-25.5-1.8-17.1-43.8-39.2-45.6c-16.4-0.9-18.2,17.3-18.2,17.3
		c-3.8,42.5-44.3,24-34.5-6.7c0.5-3.6,0.5-6.5,0.1-8.9c-1-7.7-11-10-15.3-3.6c-4.2,6.2-6.9,14.7-6.9,14.7
		c-13.2,34.8-56.4,18-31.3-20.6c48.9-50.6,60-184.6,61.8-226.1h211.8c-1,5.1,10.3,177.9,61.8,226.1C456.7,509,462.4,523,455.6,532.2
		z"/>
	<path class="st2" d="M394.9,541.6c-3.9,6.1-27.7,19.1-31.8-17.5c0,0-1.8-18.2-18.2-17.3c-22.4,2-13.3,43.5-39.2,45.6
		c-32.4-1.2,7.4-41.1-21.9-44.7c-17.8-1.5-11.6,21.7-11.1,21.9c8.2,23.7-11.9,22.8-11.9,22.8c-25.5-1.7-17.2-43.9-39.2-45.6
		c-31.4,0.5-7.2,51.5-43.8,40.1c-17.7-11.8-6.6-26.7-8.8-38.5c-1-7.7-11-10-15.3-3.6c-4.2,6.2-6.9,14.7-6.9,14.7
		c-13.1,34.8-56.4,18-31.3-20.6c46.9-46.7,60.1-182.8,61.5-219.7h166.5C343.5,279.3,350.6,476.8,394.9,541.6z"/>
	<path class="st3" d="M455.6,532.2c-6,6.7-14.5,8-24,3.4c4.2-9.1-0.9-21.5-6.2-30.6c-51.2-47.2-63.2-222.4-61.8-226.1l19.8-5.9h5.7
		c-1,5.1,10.3,177.9,61.8,226.1C456.7,509,462.4,523,455.6,532.2z"/>
	<path class="st0" d="M150,44.9c0,0,18.2,24.6,32.8,59.3l-16.9,4.1c0,0-16.4-28.3-38.3-32.8L150,44.9z"/>
	<path class="st0" d="M403.1,37.6c0,0-18.2,24.6-32.8,59.3l16.9,4.1c0,0,16.4-28.3,38.3-32.8L403.1,37.6z"/>
	<path class="st1" d="M475.1,183.1c-4.6,157.6-370,162.3-378,0C106.6,18.5,472.5,27.9,475.1,183.1z"/>
	<path class="st4" d="M402.2,183.1c-12.5,151.6-292.6,151.5-305.1,0c-0.9-59,68.7-109.2,152.5-119
		C336.6,74.9,402.2,124.1,402.2,183.1z"/>
	<path class="st3" d="M475.1,183.1c0,63.9-77.1,116.3-174.8,121c234.1-39.6,161.8-251.8-56.6-239.2
		C344.5,45.5,479.9,103.4,475.1,183.1z"/>
	<path class="st1" d="M141.3,68.5c-39.7,50.2-81.7,17.8-43.1-33.3C137.8-15,179.8,17.4,141.3,68.5z"/>
	<path class="st5" d="M127.7,58c-14.7,18.7-30.4,6.6-16-12.4C126.4,27,142.1,39,127.7,58z"/>
	<path class="st1" d="M411.8,61.2c39.7,50.2,81.7,17.8,43.1-33.3C415.3-22.3,373.3,10.1,411.8,61.2z"/>
	<path class="st5" d="M425.4,50.7c14.7,18.7,30.4,6.6,16-12.4C426.7,19.7,411,31.7,425.4,50.7z"/>
	<path class="st5" d="M280.8,287.1c35.7-1.7,76.7-4.1,105.8-27c17.2-15.4,26.3-46.9,9.8-65.5c-23.1-17.6-52.9-3.3-78.1,0.7
		c-24.3,4.1-51.3,4.2-75.9,0c-20.8-3.5-40.2-12.1-61.7-8.1c-14.3,1.6-24.4,13.2-24.7,27.5C152.8,278.5,233.1,286.4,280.8,287.1z"/>
	<path class="st6" d="M369.1,253.2c-30.5,17-74.1,17.6-108.9,16.3c-21.7-1.5-51.5-4.3-69.4-16.3c-20.4-12.7-21.8-44.2,5.6-45.8
		c17.5-2.4,33.2,2.5,50,4.9c21.2,2.9,44.4,2.9,65.4,0.2c21.2-2.4,45.3-11.6,65.5-0.5C391.1,223.8,383.5,243.6,369.1,253.2z"/>
	<path class="st7" d="M330.9,265.7c-34.2,5.9-67.6,5.7-102.2,0.3C247.6,236.4,311.7,236.3,330.9,265.7z"/>
	<path class="st8" d="M322.4,233.7c-6-0.6-8-13-8.7-21.4c5.4-0.8,10.7-1.8,16-2.7C330.7,234.1,322.4,233.7,322.4,233.7z"/>
	<path class="st8" d="M246.4,212.3c-0.6,8.4-2.6,21.7-8.8,22.3c0,0-8.6,0.4-7.2-25C235.7,210.5,241,211.5,246.4,212.3z"/>
	<path class="st9" d="M146.3,120.5c-21.9,18.9-32.8,41.6-37.2,36.5c-4.4-5.2,9.8-24.7,31.7-43.5c21.9-18.9,43.3-30,47.8-24.9
		C193,93.6,168.3,101.6,146.3,120.5z"/>
	<path class="st9" d="M111.9,168.9c-2,9.9-10.2,8.2-8.1-1.7C105.8,157.4,114,159.1,111.9,168.9z"/>
</g>
</svg>
