<?xml version="1.0" encoding="utf-8"?>
<!-- Generator: Adobe Illustrator 26.4.1, SVG Export Plug-In . SVG Version: 6.00 Build 0)  -->
<svg version="1.1" id="Capa_1" xmlns="http://www.w3.org/2000/svg" xmlns:xlink="http://www.w3.org/1999/xlink" x="0px" y="0px"
	 viewBox="0 0 558.7 558.7" style="enable-background:new 0 0 558.7 558.7;" xml:space="preserve">
<style type="text/css">
	.st0{fill:#351777;}
	.st1{fill:#5B70DD;}
	.st2{fill:#5368D3;}
	.st3{opacity:0.15;}
	.st4{opacity:0.1;fill:#FFFFFF;}
	.st5{opacity:0.3;fill:#FFFFFF;}
</style>
<g>
	<path class="st0" d="M160.9,170.7C124.1,193,19.4,380.9,14.5,514.4c-0.5-0.3,0.3,29.5,12.8,21c3.7-2.9,8.7-9.4,7.4-23
		c0.1-0.6,8.3,38.1,22.1,28c3-2.5,6-7.7,3-17.9c0,0-4-13.1-1-18.1c0,0,4.1,28.5,21,31.3c3.8,0.6,7.3-2.3,7.3-6.2
		c-8.7-64.8-9.2-213.2,62.3-292.8"/>
	<path class="st0" d="M214.3,73l-38.8,76c-96.7-21.2-95.7-96-63.9-148.5C116.8,64.4,167.1,85.4,214.3,73z"/>
	<path class="st1" d="M170.5,74.5c-8.9,9.9-25.7,32.4-27,63.7c-4.4-2-8.4-4.1-12.1-6.3c1.2-29.2,16-50.8,25.2-61.4
		C161.3,72.3,165.9,73.6,170.5,74.5z"/>
	<path class="st1" d="M139.3,60.3c-12.8,8.8-27.8,23-36.3,44.8c-2.5-4.1-4.6-8.2-6.1-12.5c7.3-21.2,21-35.9,31.2-44.4
		C131.5,52.9,135.3,56.9,139.3,60.3z"/>
	<path class="st1" d="M405.5,170.7C442.3,193,547,380.9,551.9,514.4c0.5-0.3-0.3,29.5-12.8,21c-3.7-2.9-8.7-9.4-7.4-23
		c-0.1-0.6-8.3,38.1-22.1,28c-3-2.5-6-7.7-3-17.9c0,0,4-13.1,1-18.1c0,0-4.1,28.5-21,31.3c-3.8,0.6-7.3-2.3-7.3-6.2
		c8.7-64.8,9.2-213.2-62.3-292.8"/>
	<path class="st0" d="M405.5,170.7C442.3,193,547,380.9,551.9,514.4c0.5-0.3-0.3,29.5-12.8,21c-3.7-2.9-8.7-9.4-7.4-23
		c-0.1-0.6-8.3,38.1-22.1,28c-3-2.5-6-7.7-3-17.9c0,0,4-13.1,1-18.1c0,0-4.1,28.5-21,31.3c-3.8,0.6-7.3-2.3-7.3-6.2
		c8.7-64.8,9.2-213.2-62.3-292.8"/>
	<path class="st2" d="M352.1,73l38.8,76c96.7-21.2,95.7-96,63.9-148.5C449.6,64.4,399.3,85.4,352.1,73z"/>
	<path class="st0" d="M352.1,73l38.8,76c96.7-21.2,95.7-96,63.9-148.5C449.6,64.4,399.3,85.4,352.1,73z"/>
	<path class="st1" d="M395.8,74.5c8.9,9.9,25.7,32.4,27,63.7c4.4-2,8.4-4.1,12.1-6.3c-1.2-29.2-16-50.8-25.2-61.4
		C405.1,72.3,400.4,73.6,395.8,74.5z"/>
	<path class="st1" d="M427.1,60.3c12.8,8.8,27.8,23,36.3,44.8c2.5-4.1,4.6-8.2,6.1-12.5c-7.3-21.2-21-35.9-31.2-44.4
		C434.9,52.9,431.1,56.9,427.1,60.3z"/>
	<path class="st1" d="M460.2,482.8c-7.6,51.9-52.9,63.7-98.7,59.8c-23.6-0.9-97.6-1.5-122.3-1.1c-53.7,1.9-122,11.2-133-58.7
		c-3.5-21.9,1-43.7,4.8-65.2c31-121.7,21.1-384,179.3-377c139.8,5.8,136.2,256.5,165.1,377C459.2,439.1,463.7,460.9,460.2,482.8z"/>
	<path class="st3" d="M460.2,482.8c-6.2,45.8-46.3,63.6-88.6,59.8c62.5-9.1,64.8-77.7,52.6-127C397,309.3,401.3,92.6,304.7,43
		C426,56.3,429.5,306.1,455.4,417.6C459.2,439.1,463.7,460.9,460.2,482.8z"/>
	<path class="st1" d="M127.7,248.7c0.1,7.2-11.2,7.2-11.1,0C116.5,241.5,127.8,241.5,127.7,248.7z"/>
	<path class="st1" d="M112.1,269.3c0.1,4.6-7.1,4.6-7,0C105,264.7,112.2,264.7,112.1,269.3z"/>
	<path class="st1" d="M90.5,329.2c0.1,8.5-13.2,8.5-13.1,0C77.2,320.7,90.6,320.7,90.5,329.2z"/>
	<path class="st1" d="M103,292.4c0.1,5.9-9.1,5.9-9.1,0C93.9,286.6,103.1,286.6,103,292.4z"/>
	<path class="st1" d="M77.4,379.5c0.1,9.8-15.2,9.8-15.1,0C62.1,369.7,77.5,369.7,77.4,379.5z"/>
	<path class="st0" d="M182,298c-0.1,13.8-21.1,13.8-21.1,0C161,284.2,182,284.2,182,298z"/>
	<path class="st0" d="M187.1,381c-0.1,17.1-26.1,17.1-26.2,0C161,363.9,187,363.9,187.1,381z"/>
	<path class="st0" d="M258.5,440.9c-0.6,33.7-50.8,33.7-51.3,0C207.8,407.2,258,407.2,258.5,440.9z"/>
	<path class="st0" d="M178.5,443.4c-0.1,16.5-25.1,16.5-25.2,0C153.4,427,178.4,427,178.5,443.4z"/>
	<path class="st0" d="M278.2,69c-0.1,12.5-19.1,12.5-19.1,0C259.1,56.5,278.1,56.5,278.2,69z"/>
	<path class="st1" d="M438.7,248.7c-0.1,7.2,11.2,7.2,11.1,0C449.8,241.5,438.6,241.5,438.7,248.7z"/>
	<path class="st1" d="M454.3,269.3c-0.1,4.6,7.1,4.6,7,0C461.4,264.7,454.2,264.7,454.3,269.3z"/>
	<path class="st1" d="M475.9,329.2c-0.1,8.5,13.2,8.5,13.1,0C489.1,320.7,475.8,320.7,475.9,329.2z"/>
	<path class="st1" d="M463.3,292.4c-0.1,5.9,9.1,5.9,9.1,0C472.5,286.6,463.2,286.6,463.3,292.4z"/>
	<path class="st1" d="M489,379.5c-0.1,9.8,15.2,9.8,15.1,0C504.2,369.7,488.9,369.7,489,379.5z"/>
	<path class="st0" d="M384.3,298c0.1,13.8,21.1,13.8,21.1,0C405.4,284.2,384.4,284.2,384.3,298z"/>
	<path class="st0" d="M379.3,381c0.1,17.1,26.1,17.1,26.2,0C405.4,363.9,379.4,363.9,379.3,381z"/>
	<path class="st0" d="M307.8,440.9c0.6,33.7,50.8,33.7,51.3,0C358.6,407.2,308.4,407.2,307.8,440.9z"/>
	<path class="st0" d="M387.8,443.4c0.1,16.5,25.1,16.5,25.2,0C412.9,427,387.9,427,387.8,443.4z"/>
	<path class="st0" d="M290.2,69c0.1,12.5,19.1,12.5,19.1,0C309.3,56.5,290.3,56.5,290.2,69z"/>
	<path class="st0" d="M287.2,93.2c-0.1,9.8,15.2,9.8,15.1,0C302.5,83.4,287.1,83.4,287.2,93.2z"/>
	<path class="st0" d="M263.1,93.2c-0.1,9.8,15.2,9.8,15.1,0C278.3,83.4,262.9,83.4,263.1,93.2z"/>
	<path class="st0" d="M280.2,106.2c0,3.3,5.1,3.3,5,0C285.3,103,280.1,103,280.2,106.2z"/>
	<path class="st0" d="M328,251.3c-0.6,0-1.2-0.3-1.7-0.8c-16-19-32.5-28.2-49.2-27.4c-26,1.3-43.8,26.9-44,27.2c-0.7,1-2,1.2-3,0.6
		c-1-0.7-1.2-2-0.6-3c0.8-1.1,19.2-27.7,47.4-29.1c18.1-0.9,35.8,8.8,52.7,28.9c0.8,0.9,0.7,2.3-0.3,3.1
		C329,251.2,328.5,251.3,328,251.3z"/>
	<path class="st4" d="M377.7,485.3c-3.7,26.5-23,52.6-50.5,56.2c-43.2-1.4-114,2.2-156.3,0.6c-67.6-5.1-73.4-71.2-59.9-124.5
		c26.2-104.5,25.4-329.3,128-366.8c106.8,30.2,108.2,264.4,133.9,369.3C376.6,441.6,381.2,463.5,377.7,485.3z"/>
	<path class="st5" d="M168.6,173.8c-7.9,31-4.8,58-11.1,56.4c-6.3-1.6-4.9-28,3-59c7.9-31,19.4-54.8,25.7-53.2
		C192.4,119.6,176.5,142.8,168.6,173.8z"/>
	<path class="st5" d="M157.9,244.3c-2.4,10.9-11.5,8.7-8.9-2.1C151.5,231.4,160.5,233.5,157.9,244.3z"/>
	<path class="st0" d="M210.1,552.6h-65.2c-33-7.8,9.2-61.9,32.6-56.9C200.9,490.8,243.1,544.8,210.1,552.6z"/>
	<path class="st0" d="M356.3,552.6h65.2c33-7.8-9.2-61.9-32.6-56.9C365.5,490.8,323.3,544.8,356.3,552.6z"/>
</g>
</svg>
